<svg width="58" height="67" viewBox="0 0 58 67" fill="none" xmlns="http://www.w3.org/2000/svg">
<path d="M53.487 59.8059L58.7706 0H0L0.0690476 0.776083L5.27524 59.8143L5.31943 60.3056L29.163 67H29.5386L53.4373 60.3L53.4815 59.8087L53.487 59.8059ZM29.4364 13.0622H46.5132L45.9995 19.0922L29.1519 26.6632L29.4336 28.0255H45.2428L43.4227 49.1054L29.3756 53.0417L15.3341 49.111L14.4503 39.0163H20.231L20.695 44.1335L20.7391 44.6304L29.2596 46.9195H29.627L38.0535 44.5522L38.095 44.0581L38.8904 34.6055L38.9539 33.835H13.967L13.4422 27.7687L30.867 20.2284L30.5909 18.8605H12.6937L12.1828 13.0538H29.417L29.4364 13.0622Z" fill="black"/>
</svg>
