<svg width="67" height="68" viewBox="0 0 67 68" fill="none" xmlns="http://www.w3.org/2000/svg">
<path d="M65.7364 30.6867L36.4912 1.2703C35.6816 0.456901 34.584 0 33.4396 0C32.2951 0 31.1975 0.456901 30.3879 1.2703L24.3071 7.38067L32.0121 15.1288C36.059 13.7542 39.8905 17.6508 38.5012 21.6979L45.928 29.1663C51.0472 27.3916 55.0777 33.8284 51.2327 37.6919C47.271 41.6757 40.7325 37.2603 42.8577 32.0763L35.9259 25.1147V43.4398C39.7096 45.3257 39.2549 49.7337 37.2838 51.7113C36.3208 52.6792 35.015 53.2229 33.6534 53.2229C32.2919 53.2229 30.986 52.6792 30.023 51.7113C27.3953 49.0644 28.3674 44.6565 31.7055 43.2894V24.7914C28.5948 23.5116 28.0265 20.1684 28.9178 18.0238L21.322 10.3764L1.26385 30.5498C0.45461 31.3638 0 32.4676 0 33.6186C0 34.7695 0.45461 35.8734 1.26385 36.6873L30.518 66.1037C31.3274 66.917 32.4247 67.3738 33.5689 67.3738C34.7131 67.3738 35.8105 66.917 36.6198 66.1037L65.7364 36.8241C66.5456 36.0102 67.0003 34.9064 67.0003 33.7554C67.0003 32.6045 66.5456 31.5006 65.7364 30.6867Z" fill="black"/>
</svg>
