<svg width="54" height="72" viewBox="0 0 54 72" fill="#a3e1de" xmlns="http://www.w3.org/2000/svg">
<path d="M17.5567 55.6763C17.5567 55.6763 14.8027 57.2805 19.512 57.8183C25.218 58.4753 28.1362 58.383 34.4182 57.186C34.4182 57.186 36.0675 58.23 38.3782 59.1323C24.282 65.169 6.47999 58.77 17.5545 55.6763H17.5567ZM15.831 47.8013C15.831 47.8013 12.7372 50.085 17.4487 50.5643C23.5575 51.1965 28.359 51.2573 36.6907 49.653C36.6907 49.653 37.8405 50.814 39.6585 51.4553C22.6192 56.4345 3.63374 51.8423 15.8332 47.8013H15.831ZM30.3502 34.4318C33.8175 38.4278 29.4345 42.0255 29.4345 42.0255C29.4345 42.0255 38.2477 37.4648 34.2045 31.7723C30.4222 26.451 27.5152 23.8163 43.2158 14.7083C43.2158 14.7083 18.5715 20.862 30.348 34.434L30.3502 34.4318ZM48.9847 61.5128C48.9847 61.5128 51.0255 63.1868 46.746 64.4895C38.6122 66.9488 12.8902 67.6868 5.74199 64.5818C3.17699 63.468 7.99199 61.911 9.50399 61.5938C11.0857 61.2428 11.988 61.3148 11.988 61.3148C9.12824 59.2988 -6.48001 65.2635 4.05674 66.9735C32.8027 71.6378 56.448 64.8765 48.9847 61.5128ZM18.8797 39.6338C18.8797 39.6338 5.79149 42.7388 14.238 43.8638C17.8132 44.343 24.9277 44.2395 31.5607 43.677C36.972 43.218 42.4125 42.246 42.4125 42.246C42.4125 42.246 40.5022 43.065 39.1185 44.0168C25.8277 47.5088 0.155238 45.8798 7.54874 42.3068C13.7947 39.294 18.8797 39.6338 18.8797 39.6338ZM42.3517 52.758C55.8518 45.7268 49.6058 38.988 45.2587 39.9038C44.19 40.113 43.7108 40.3155 43.7108 40.3155C43.7108 40.3155 44.0977 39.6923 44.8605 39.4245C53.4847 36.3893 60.1178 48.3638 42.0817 53.1113C42.0817 53.1 42.2955 52.9245 42.3517 52.7603V52.758ZM34.2067 0C34.2067 0 41.6857 7.47675 27.1057 18.9833C15.4237 28.2173 24.444 33.48 27.1057 39.492C20.286 33.3383 15.282 27.927 18.6345 22.887C23.5665 15.4688 37.2195 11.8823 34.2067 0ZM20.2027 71.7773C33.165 72.5963 53.073 71.3093 53.5568 65.1803C53.5568 65.1803 52.641 67.5 42.831 69.3495C31.77 71.4353 18.117 71.1878 10.0192 69.8535C10.0192 69.8535 11.6842 71.2238 20.2005 71.7773H20.2027Z" fill="black"/>
</svg>
