<svg width="51" height="59" viewBox="0 0 51 59" fill="none" xmlns="http://www.w3.org/2000/svg">
<path d="M25.858 35.1531C24.8509 35.6158 23.7475 36.2188 21.5386 37.4311C20.7011 37.9022 19.8259 38.3733 19.0115 38.8172C18.9549 38.7607 18.8963 38.6895 18.8398 38.6308C14.4701 33.9618 6.38824 30.6641 6.73162 24.3933C6.85934 22.1091 7.64449 16.1126 22.2526 8.8305C34.2749 2.90519 43.8412 4.54669 45.4932 8.18772C47.8675 13.3781 40.3656 23.0366 27.9497 24.4373C26.5755 24.716 25.1563 24.6824 23.7969 24.3388C22.4375 23.9953 21.1727 23.3506 20.096 22.4524C19.4386 21.7385 19.3402 21.6966 19.0973 21.839C18.6974 22.0483 18.9549 22.6953 19.0973 23.0659C19.5709 23.9234 20.2116 24.6772 20.9816 25.2828C21.7515 25.8884 22.6351 26.3335 23.58 26.5918C28.466 27.6479 33.5603 27.1433 38.1441 25.1492C45.6691 22.2368 51.5441 14.1403 49.8231 7.35232C48.0957 0.47016 36.6722 -1.79946 25.8643 2.04047C19.0958 4.32139 12.8423 7.91199 7.46024 12.6076C1.50562 18.177 0.563432 23.0178 0.948682 25.0445C2.33474 32.2407 12.2549 36.9244 16.2331 40.3938C16.0237 40.5089 15.8478 40.6032 15.6908 40.6932C13.7059 41.6793 6.13909 45.6344 4.25262 49.8178C2.11071 54.558 4.59599 57.9562 6.23749 58.4126C8.71123 59.0051 11.3083 58.8104 13.6659 57.8554C16.0236 56.9005 18.0242 55.2331 19.3883 53.0861C20.5468 51.3057 21.2581 49.2719 21.4619 47.1577C21.6656 45.0434 21.3558 42.9112 20.5587 40.9423C21.029 40.5672 21.5306 40.2331 22.0579 39.9436C23.0712 39.3448 24.0365 38.7544 24.8928 38.2979C27.8248 36.9246 31.0246 36.2174 34.2623 36.2272C41.0586 37.027 42.4007 41.2669 42.1432 43.0528C42.0227 43.6865 41.7679 44.287 41.3959 44.8139C41.0239 45.3408 40.5434 45.782 39.9866 46.1076C39.5156 46.407 39.3585 46.5075 39.4004 46.7211C39.4569 47.0352 39.6851 47.0205 40.085 46.964C41.1062 46.6413 42.0058 46.0172 42.6657 45.1738C43.3256 44.3304 43.715 43.3071 43.7826 42.2384C43.992 38.0509 39.9992 33.4572 32.9307 33.4991C30.8142 33.5027 28.7188 33.9202 26.7625 34.7281C26.4485 34.8579 26.1435 34.9975 25.8476 35.1469L25.858 35.1531ZM15.7557 51.566C13.4986 54.022 10.358 54.9495 9.00124 54.1644C7.53562 53.3269 8.11559 49.6942 10.8856 47.0959C12.5262 45.6177 14.2994 44.2938 16.1828 43.1408C16.5115 42.9314 16.9973 42.655 17.5814 42.3033L17.7385 42.2174L18.0818 42.0081C18.5759 43.6644 18.6208 45.4224 18.2121 47.1018C17.8034 48.7813 16.9556 50.3219 15.7557 51.566Z" fill="black"/>
</svg>
