<svg width="23" height="13" viewBox="0 0 23 13" fill="none" xmlns="http://www.w3.org/2000/svg">
<path d="M11.1936 9.74893C10.7539 10.44 10.3321 11.1161 9.38678 11.7729C8.88114 12.1273 7.71731 12.8198 6.06302 12.8198C2.90685 12.8198 0.359375 10.5252 0.359375 6.49107C0.359375 2.96533 2.75573 0.180176 6.13031 0.180176C7.49746 0.180176 8.71215 0.652799 9.60668 1.3618C10.4339 2.01991 10.8213 2.67819 11.1593 3.269L8.79732 4.44923C8.62832 4.06174 8.42492 3.65641 7.90279 3.21811C7.32851 2.76192 6.75549 2.62729 6.26494 2.62729C4.34134 2.62729 3.32867 4.41631 3.32867 6.40724C3.32867 9.0234 4.66285 10.3219 6.26494 10.3219C7.81757 10.3219 8.44275 9.24186 8.84678 8.55078L11.1936 9.74898V9.74893ZM19.468 0.551185H22.6406L18.5062 12.4654H15.4696L11.386 0.551185H14.5586L17.0222 9.02345L19.468 0.551185Z" fill="#272643"/>
</svg>
