<svg xmlns="http://www.w3.org/2000/svg"  viewBox="0 0 24 24" width="96px" height="96px"><path d="M 17 3 L 7 3 C 5.898438 3 5 3.898438 5 5 L 5 19 C 5 20.101563 5.898438 21 7 21 L 17 21 C 18.101563 21 19 20.101563 19 19 L 19 5 C 19 3.898438 18.101563 3 17 3 Z M 8 18 L 8 15 L 10 16.5 Z M 16 18 L 14 18 C 14 18 14 14.898438 14 12.972656 C 14 12.398438 13.457031 10.769531 8.011719 13 C 8 13.035156 8 6.015625 8 6.015625 L 10 6 L 10 10.367188 C 10 10.367188 16 8.613281 16 13 Z M 15.007813 8 C 14.40625 8 13.300781 8 13 8 C 13.632813 7.035156 14.128906 6 14.128906 6 L 16.011719 6 C 16.011719 6 15.753906 6.828125 15.007813 8 Z"/></svg>