<svg xmlns="http://www.w3.org/2000/svg"  viewBox="0 0 24 24" width="96px" height="96px"><path d="M 13 1 L 8 3 L 4 7 L 1 12 L 1 18 C 1.0625 20.207031 1.949219 21.59375 3.082031 22.277344 C 4.144531 22.917969 5.355469 22.980469 6 23 C 6.042969 23 22.996094 22.996094 22.996094 22.996094 C 22.996094 22.996094 23 6.011719 23 6 C 23.003906 5.496094 22.949219 4.761719 22.820313 4.257813 C 22.429688 2.730469 21.148438 1.367188 19 1 Z M 16.386719 2.855469 L 18.738281 2.855469 C 20.339844 3.132813 20.894531 3.796875 21.09375 4.777344 C 21.261719 5.628906 21.144531 6.503906 21.09375 6.816406 Z M 13 3 L 14.808594 3.949219 L 13.375 8.453125 L 8.8125 13.015625 L 3.933594 13.816406 L 3 12 L 5.332031 8.25 L 9.332031 4.25 Z M 16.328125 5.238281 L 20.117188 8.367188 L 15.355469 8.367188 Z M 15.183594 10.203125 L 19.972656 10.203125 C 19.175781 11.820313 18.101563 13.292969 16.875 14.707031 Z M 13.519531 10.949219 L 15.066406 15.082031 L 10.933594 13.53125 Z M 21.207031 11.753906 L 21.207031 19.902344 L 17.765625 16.457031 C 19.058594 15.015625 20.257813 13.472656 21.207031 11.753906 Z M 8.09375 15.023438 L 7.089844 19.585938 L 4.882813 15.539063 Z M 9.929688 15.109375 L 14.722656 16.886719 C 12.898438 18.511719 10.953125 19.890625 8.695313 20.648438 Z M 2.84375 15.625 L 5.886719 21.191406 C 5.316406 21.164063 4.621094 21.089844 4.078125 20.761719 C 3.453125 20.386719 2.898438 19.746094 2.84375 18.007813 Z M 16.472656 17.804688 L 19.886719 21.21875 L 11.941406 21.21875 C 13.609375 20.277344 15.097656 19.074219 16.472656 17.804688 Z"/></svg>